<?xml version="1.0" encoding="utf-8"?><svg xmlns="http://www.w3.org/2000/svg" xmlns:xlink="http://www.w3.org/1999/xlink"><symbol viewBox="0 0 14 12" id="arrow-down" xmlns="http://www.w3.org/2000/svg"><path d="M7 12l6.928-12H.072L7 12z"/></symbol><symbol viewBox="0 0 12 14" id="arrow-right" xmlns="http://www.w3.org/2000/svg"><path d="M12 7L0 13.928V.072L12 7z"/></symbol><symbol viewBox="0 0 19 16" id="btn-arrow-right" xmlns="http://www.w3.org/2000/svg"><path d="M18.457 8.707a1 1 0 000-1.414L12.093.929a1 1 0 10-1.414 1.414L16.336 8l-5.657 5.657a1 1 0 001.414 1.414l6.364-6.364zM.25 9h17.5V7H.25v2z"/></symbol><symbol viewBox="0 0 24 24" id="dialog" xmlns="http://www.w3.org/2000/svg"><g clip-path="url(#dclip0_339_639)"><path d="M21.271 2.717h-17.6c-1.339 0-2.514 1.253-2.514 2.682v10.476c0 1.338 1.081 2.346 2.515 2.346h8.324l3.232 3.271a.84.84 0 001.192 0l3.232-3.27h1.62c1.433 0 2.514-1.01 2.514-2.347V5.399c0-1.429-1.175-2.682-2.515-2.682zm.839 13.158c0 .495-.452.67-.838.67h-1.97a.838.838 0 00-.596.25l-2.882 2.916-2.882-2.917a.838.838 0 00-.596-.249H3.672c-.387 0-.838-.175-.838-.67V5.399c0-.499.423-1.006.838-1.006h17.6c.415 0 .838.507.838 1.006v10.476z"/><path d="M17.081 6.797H7.862a.628.628 0 100 1.257h9.22a.628.628 0 100-1.257zm0 3.043H7.862a.629.629 0 100 1.258h9.22a.628.628 0 100-1.257zm0 3.045H7.862a.628.628 0 100 1.257h9.22a.63.63 0 100-1.257z"/></g><defs><clipPath id="dclip0_339_639"><path transform="translate(.972 .73)" d="M0 0h23v23H0z"/></clipPath></defs></symbol><symbol viewBox="0 0 18 18" id="question" xmlns="http://www.w3.org/2000/svg"><path d="M9 0C4.037 0 0 4.037 0 9s4.037 9 9 9 9-4.037 9-9-4.037-9-9-9zm0 14.25a.75.75 0 110-1.5.75.75 0 010 1.5zm1.187-4.769a.753.753 0 00-.437.682v.337a.75.75 0 11-1.5 0v-.337A2.26 2.26 0 019.559 8.12c.764-.352 1.316-1.286 1.316-1.744 0-1.033-.84-1.875-1.875-1.875a1.877 1.877 0 00-1.875 1.875.75.75 0 11-1.5 0A3.38 3.38 0 019 3a3.38 3.38 0 013.375 3.375c0 1.013-.879 2.503-2.188 3.106z"/></symbol><symbol viewBox="0 0 18 18" id="shopping-cart" xmlns="http://www.w3.org/2000/svg"><g clip-path="url(#fclip0)"><path d="M17.689 2.805a1.347 1.347 0 00-1.044-.49H6.2a.388.388 0 000 .775h10.444c.177 0 .336.074.446.208a.594.594 0 01.124.491l-1.549 7.745a.585.585 0 01-.57.47H6.48L2.923 1.296A1.378 1.378 0 001.615.378C1.108.395.594.395.47.386a.387.387 0 00-.357.653c.12.12.16.16 1.515.114.253 0 .48.16.562.393l3.643 10.967c.052.159.2.265.367.265h8.894c.644 0 1.19-.444 1.33-1.086l1.55-7.753a1.368 1.368 0 00-.285-1.134z"/><path d="M14.92 14.91H7.867a.591.591 0 01-.544-.395l-.755-2.248a.387.387 0 10-.735.248l.757 2.252c.193.549.706.918 1.277.918h7.053a.387.387 0 100-.775z"/><path d="M8.138 14.91a1.357 1.357 0 000 2.713c.748 0 1.357-.609 1.357-1.357 0-.747-.609-1.356-1.357-1.356zm0 1.938a.582.582 0 11.002-1.164.582.582 0 01-.002 1.164zm6.782-1.938a1.357 1.357 0 000 2.713c.748 0 1.356-.609 1.356-1.357 0-.747-.608-1.356-1.356-1.356zm0 1.938a.582.582 0 11.001-1.164.582.582 0 01-.001 1.164z"/></g><defs><clipPath id="fclip0"><path d="M0 0h18v18H0z"/></clipPath></defs></symbol><symbol viewBox="0 0 16 16" id="star" xmlns="http://www.w3.org/2000/svg"><path d="M8.773.933l1.804 3.657c.126.254.368.43.65.471l4.034.587a.862.862 0 01.478 1.47l-2.92 2.845a.862.862 0 00-.248.763l.69 4.02a.862.862 0 01-1.25.907L8.4 13.756a.862.862 0 00-.802 0L3.99 15.653a.862.862 0 01-1.25-.908l.689-4.019a.862.862 0 00-.248-.763L.261 7.117a.861.861 0 01.478-1.47l4.035-.586a.861.861 0 00.65-.471L7.227.933a.861.861 0 011.545 0z"/></symbol></svg>