<?xml version="1.0" encoding="utf-8"?><svg xmlns="http://www.w3.org/2000/svg" xmlns:xlink="http://www.w3.org/1999/xlink"><symbol viewBox="0 0 14 12" id="arrow-down" xmlns="http://www.w3.org/2000/svg"><path d="M7 12l6.928-12H.072L7 12z"/></symbol><symbol viewBox="0 0 12 14" id="arrow-right" xmlns="http://www.w3.org/2000/svg"><path d="M12 7L0 13.928V.072L12 7z"/></symbol><symbol viewBox="0 0 18 18" id="question" xmlns="http://www.w3.org/2000/svg"><path d="M9 0C4.037 0 0 4.037 0 9s4.037 9 9 9 9-4.037 9-9-4.037-9-9-9zm0 14.25a.75.75 0 110-1.5.75.75 0 010 1.5zm1.187-4.769a.753.753 0 00-.437.682v.337a.75.75 0 11-1.5 0v-.337A2.26 2.26 0 019.559 8.12c.764-.352 1.316-1.286 1.316-1.744 0-1.033-.84-1.875-1.875-1.875a1.877 1.877 0 00-1.875 1.875.75.75 0 11-1.5 0A3.38 3.38 0 019 3a3.38 3.38 0 013.375 3.375c0 1.013-.879 2.503-2.188 3.106z"/></symbol><symbol viewBox="0 0 18 18" id="shopping-cart" xmlns="http://www.w3.org/2000/svg"><g clip-path="url(#dclip0)"><path d="M17.689 2.805a1.347 1.347 0 00-1.044-.49H6.2a.388.388 0 000 .775h10.444c.177 0 .336.074.446.208a.594.594 0 01.124.491l-1.549 7.745a.585.585 0 01-.57.47H6.48L2.923 1.296A1.378 1.378 0 001.615.378C1.108.395.594.395.47.386a.387.387 0 00-.357.653c.12.12.16.16 1.515.114.253 0 .48.16.562.393l3.643 10.967c.052.159.2.265.367.265h8.894c.644 0 1.19-.444 1.33-1.086l1.55-7.753a1.368 1.368 0 00-.285-1.134z"/><path d="M14.92 14.91H7.867a.591.591 0 01-.544-.395l-.755-2.248a.387.387 0 10-.735.248l.757 2.252c.193.549.706.918 1.277.918h7.053a.387.387 0 100-.775z"/><path d="M8.138 14.91a1.357 1.357 0 000 2.713c.748 0 1.357-.609 1.357-1.357 0-.747-.609-1.356-1.357-1.356zm0 1.938a.582.582 0 11.002-1.164.582.582 0 01-.002 1.164zm6.782-1.938a1.357 1.357 0 000 2.713c.748 0 1.356-.609 1.356-1.357 0-.747-.608-1.356-1.356-1.356zm0 1.938a.582.582 0 11.001-1.164.582.582 0 01-.001 1.164z"/></g><defs><clipPath id="dclip0"><path d="M0 0h18v18H0z"/></clipPath></defs></symbol><symbol stroke-linecap="round" stroke-linejoin="round" stroke-width="2" viewBox="0 0 24 24" id="slider-arrow-down" xmlns="http://www.w3.org/2000/svg"><path d="M12 4v16m6-6l-6 6-6-6"/></symbol><symbol viewBox="0 0 27 16" id="slider-arrow-left" xmlns="http://www.w3.org/2000/svg"><path d="M1.043 8.821a1 1 0 010-1.414l6.364-6.364A1 1 0 018.82 2.457L3.164 8.114l5.657 5.657a1 1 0 11-1.414 1.414L1.043 8.821zm25.207.293H1.75v-2h24.5v2z"/></symbol><symbol viewBox="0 0 27 16" id="slider-arrow-right" xmlns="http://www.w3.org/2000/svg"><path d="M25.957 8.821a1 1 0 000-1.414l-6.364-6.364a1 1 0 10-1.414 1.414l5.657 5.657-5.657 5.657a1 1 0 001.414 1.414l6.364-6.364zM.75 9.114h24.5v-2H.75v2z"/></symbol><symbol stroke-linecap="round" stroke-linejoin="round" stroke-width="2" viewBox="0 0 24 24" id="slider-arrow-up" xmlns="http://www.w3.org/2000/svg"><path d="M12 20V4m-6 6l6-6 6 6"/></symbol></svg>